<?xml version="1.0" standalone="no"?>
<!DOCTYPE svg PUBLIC "-//W3C//DTD SVG 20010904//EN"
 "http://www.w3.org/TR/2001/REC-SVG-20010904/DTD/svg10.dtd">
<svg version="1.0" xmlns="http://www.w3.org/2000/svg"
 width="225.000000pt" height="225.000000pt" viewBox="0 0 225.000000 225.000000"
 preserveAspectRatio="xMidYMid meet">
<metadata>
Created by potrace 1.16, written by Peter Selinger 2001-2019
</metadata>
<g transform="translate(0.000000,225.000000) scale(0.100000,-0.100000)"
fill="#000000" stroke="none">
<path d="M788 2196 c-32 -18 -63 -37 -69 -43 -9 -9 -12 -128 -13 -423 l-1
-410 30 -16 c17 -8 39 -21 50 -27 12 -7 103 -59 203 -117 101 -58 177 -107
171 -109 -24 -8 -197 21 -272 46 -43 14 -80 23 -82 21 -5 -5 -8 -579 -3 -582
7 -5 296 -171 338 -194 25 -14 69 -40 98 -59 29 -18 57 -33 62 -33 6 0 10 130
10 356 0 234 3 353 10 349 12 -7 14 -745 2 -745 -4 0 -16 6 -27 13 -11 8 -45
27 -75 44 -30 17 -127 72 -215 123 -88 52 -177 103 -197 114 l-38 21 0 283 c0
164 -4 282 -9 282 -5 0 -16 2 -23 5 -10 4 -24 -11 -41 -43 l-27 -50 0 -270 0
-270 43 -24 c23 -14 150 -87 282 -163 132 -76 256 -147 275 -158 19 -10 64
-36 99 -57 l63 -38 72 43 71 42 3 434 c1 284 -1 441 -8 454 -6 13 -11 171 -13
423 l-2 404 -45 25 c-25 14 -65 37 -90 51 -25 13 -49 28 -55 32 -5 4 -35 21
-65 38 -30 16 -138 78 -240 137 -102 59 -192 110 -200 114 -9 5 -36 -4 -72
-23z"/>
</g>
</svg>
