<?xml version="1.0" encoding="iso-8859-1"?>
<svg width="150px" height="150px" version="1.1" id="Layer_1" xmlns="http://www.w3.org/2000/svg" xmlns:xlink="http://www.w3.org/1999/xlink" 
	 viewBox="0 0 460 460" xml:space="preserve">
<g id="XMLID_1196_">
	<path id="XMLID_1197_" style="fill:#121923;" d="M455.987,460H330.078l-20-101.425l20-101.425
		C404.683,294,455.987,371.147,455.987,460z"/>
	<polygon id="XMLID_1198_" style="fill:#DAE0E7;" points="300.078,257.149 320.078,358.575 300.078,460 230.159,460 220,293 
		272.091,257.149 	"/>
	<polygon id="XMLID_1199_" style="fill:#FFFFFF;" points="160.241,257.149 140.241,358.575 160.241,460 230.159,460 230,293 
		187.909,257.149 	"/>
	<polygon id="XMLID_1200_" style="fill:#2D79CC;" points="246.847,293 270.387,422.92 230,460 220,283 	"/>
	<polygon id="XMLID_1201_" style="fill:#3897FF;" points="213.153,293 189.613,422.92 230,460 230,283 	"/>
	<polygon id="XMLID_1202_" style="fill:#3897FF;" points="272.091,257.149 246.847,293 230,293 220,275.075 230,257.149 	"/>
	<polygon id="XMLID_1203_" style="fill:#8BC0FF;" points="187.909,257.149 213.153,293 230,293 230,257.149 	"/>
	<rect id="XMLID_1204_" x="300.078" y="257.149" style="fill:#233145;" width="30" height="202.851"/>
	<path id="XMLID_1205_" style="fill:#233145;" d="M4.013,460h125.909l20-101.425l-20-101.425C55.317,294,4.013,371.147,4.013,460z"
		/>
	<rect id="XMLID_1206_" x="129.922" y="257.149" style="fill:#466289;" width="30" height="202.851"/>
	<path id="XMLID_1207_" style="fill:#233145;" d="M125,114c0,57.897,47.103,105,105,105V9C172.103,9,125,56.103,125,114z"/>
	<path id="XMLID_1208_" style="fill:#121923;" d="M230,9l-30,105l30,105c57.897,0,105-47.103,105-105S287.897,9,230,9z"/>
	<path id="XMLID_1209_" style="fill:#3897FF;" d="M230,0c62.86,0,114,51.14,114,114s-51.14,114-114,114v-30.71
		c5.53-5.31,15.55-28.26,17.62-68.29H230l-20-15l20-15h17.62c-2.07-40.03-12.09-62.98-17.62-68.29V0z M277.64,99h34.99
		c-4.78-26.4-21.92-48.54-45.21-60.18c0.05,0.15,0.1,0.29,0.15,0.43C273.08,55.8,276.56,76.61,277.64,99z M312.63,129h-34.99
		c-1.08,22.39-4.56,43.2-10.07,59.75c-0.05,0.14-0.1,0.28-0.15,0.43C290.71,177.54,307.85,155.4,312.63,129z"/>
	<path id="XMLID_1213_" style="fill:#8BC0FF;" d="M230,197.29V228c-62.86,0-114-51.14-114-114S167.14,0,230,0v30.71
		c-5.53,5.31-15.54,28.26-17.61,68.29H230v30h-17.61C214.46,169.03,224.47,191.98,230,197.29z M192.44,39.25
		c0.05-0.14,0.1-0.28,0.15-0.43C169.3,50.46,152.15,72.6,147.37,99h34.99C183.44,76.61,186.92,55.8,192.44,39.25z M192.59,189.18
		c-0.05-0.15-0.1-0.29-0.15-0.43c-5.52-16.55-9-37.36-10.08-59.75h-34.99C152.15,155.4,169.3,177.54,192.59,189.18z"/>
</g>
</svg>