<?xml version="1.0" encoding="iso-8859-1"?>
<svg width="150px" height="150px" version="1.1" id="Layer_1" xmlns="http://www.w3.org/2000/svg" xmlns:xlink="http://www.w3.org/1999/xlink" 
	 viewBox="0 0 393.568 393.568" xml:space="preserve">
<circle style="fill:#F0582F;" cx="196.784" cy="196.784" r="196.784"/>
<rect x="55.014" y="77.317" style="fill:#414753;" width="283.475" height="40.081"/>
<rect x="55.014" y="117.398" style="fill:#F1F3F7;" width="283.475" height="198.853"/>
<circle style="fill:#F0582F;" cx="76.541" cy="97.228" r="6.271"/>
<circle style="fill:#FBD303;" cx="98.004" cy="97.228" r="6.271"/>
<circle style="fill:#71D456;" cx="119.725" cy="97.228" r="6.271"/>
<g>
	<path style="fill:#DEDEDF;" d="M277.463,91.216H144.097c-3.426,0-6.271,2.909-6.271,6.271c0,3.426,2.909,6.271,6.271,6.271h133.366
		c3.426,0,6.271-2.909,6.271-6.271C283.798,93.802,281.147,91.216,277.463,91.216z"/>
	<circle style="fill:#DEDEDF;" cx="306.295" cy="97.228" r="7.887"/>
</g>
<rect x="104.016" y="137.826" style="fill:#6EB1E1;" width="185.794" height="120.242"/>
<g>
	<rect x="145.455" y="161.939" style="fill:#F1F3F7;" width="102.465" height="14.158"/>
	<rect x="166.4" y="195.232" style="fill:#F1F3F7;" width="60.768" height="14.158"/>
</g>
<rect x="182.626" y="227.168" style="fill:#4485C5;" width="28.315" height="14.158"/>
<g>
	<circle style="fill:#DEDEDF;" cx="169.826" cy="285.349" r="8.145"/>
	<circle style="fill:#DEDEDF;" cx="196.784" cy="285.349" r="8.145"/>
	<circle style="fill:#DEDEDF;" cx="223.741" cy="285.349" r="8.145"/>
</g>
<path style="fill:#333842;" d="M312.048,96.453l-3.685-3.685c-0.517-0.517-1.293-0.517-1.81,0c-0.517,0.517-0.517,1.293,0,1.81
	l1.552,1.293h-6.788c-0.776,0-1.293,0.517-1.293,1.293c0,0.776,0.517,1.293,1.293,1.293h6.788l-1.552,1.552
	c-0.517,0.517-0.517,1.293,0,1.81c0.517,0.517,1.552,0.259,1.81,0l3.685-3.685c0.517-0.453,0.517-0.84,0.517-0.84
	S312.63,96.905,312.048,96.453z"/>
</svg>