<?xml version="1.0" standalone="no"?>
<!DOCTYPE svg PUBLIC "-//W3C//DTD SVG 20010904//EN"
 "http://www.w3.org/TR/2001/REC-SVG-20010904/DTD/svg10.dtd">
<svg version="1.0" xmlns="http://www.w3.org/2000/svg"
 width="216.000000pt" height="233.000000pt" viewBox="0 0 216.000000 233.000000"
 preserveAspectRatio="xMidYMid meet">
<metadata>
Created by potrace 1.16, written by Peter Selinger 2001-2019
</metadata>
<g transform="translate(0.000000,233.000000) scale(0.100000,-0.100000)"
fill="#000000" stroke="none">
<path d="M1267 1694 c-4 -4 -7 -15 -7 -24 0 -9 -12 -27 -26 -41 -25 -23 -31
-24 -174 -24 -131 0 -150 -2 -169 -19 -30 -27 -27 -33 21 -39 56 -7 169 -65
251 -127 77 -58 80 -58 123 15 34 59 45 127 29 188 -13 50 -36 83 -48 71z"/>
<path d="M724 1509 c-61 -23 -134 -92 -176 -166 -16 -29 -44 -62 -63 -73 -53
-33 -60 -45 -36 -69 23 -23 70 -28 102 -11 11 6 19 7 19 2 0 -13 -42 -39 -71
-44 -21 -4 -18 -7 26 -27 54 -25 132 -51 153 -51 7 0 25 25 39 57 32 70 41
168 20 236 -17 52 -11 59 16 22 49 -68 61 -188 28 -275 l-19 -50 96 0 c109 0
236 20 330 51 126 42 231 8 218 -72 -10 -64 44 -109 132 -109 34 0 57 6 73 19
l24 19 -27 12 c-29 14 -54 61 -44 85 9 24 -5 46 -37 60 l-30 13 54 15 c76 23
87 33 108 110 10 38 28 78 40 91 27 29 27 36 -2 36 -75 0 -189 -66 -238 -136
-31 -46 -60 -64 -89 -57 -18 5 -54 38 -145 132 -160 166 -355 236 -501 180z"/>
<path d="M1170 1080 c-30 -10 -93 -23 -140 -30 -127 -17 -130 -18 -123 -35 10
-28 65 -48 125 -47 42 1 84 13 155 42 54 23 102 45 107 50 5 5 -7 15 -29 24
-21 9 -38 16 -39 15 0 -1 -26 -9 -56 -19z"/>
</g>
</svg>
