<?xml version="1.0" standalone="no"?>
<!DOCTYPE svg PUBLIC "-//W3C//DTD SVG 20010904//EN"
 "http://www.w3.org/TR/2001/REC-SVG-20010904/DTD/svg10.dtd">
<svg version="1.0" xmlns="http://www.w3.org/2000/svg"
 width="148.000000pt" height="148.000000pt" viewBox="0 0 148.000000 148.000000"
 preserveAspectRatio="xMidYMid meet">
<metadata>
Created by potrace 1.16, written by Peter Selinger 2001-2019
</metadata>
<g transform="translate(0.000000,148.000000) scale(0.100000,-0.100000)"
fill="#000000" stroke="none">
<path d="M944 1155 c-12 -31 4 -44 58 -47 l53 -3 11 -45 11 -45 -235 -3 c-130
-1 -239 1 -244 6 -5 5 -11 25 -14 44 -6 34 -6 35 25 30 50 -7 81 5 81 32 0 30
-16 36 -100 36 -92 0 -97 -8 -70 -105 l21 -76 -40 -52 c-22 -29 -51 -65 -64
-81 l-24 -29 -48 16 c-76 26 -142 22 -214 -14 -97 -49 -144 -125 -145 -234 -1
-111 50 -196 148 -248 62 -33 174 -30 242 5 62 33 109 89 133 160 l18 53 78 3
78 3 136 127 c75 70 160 150 189 177 29 28 57 51 62 53 7 3 30 -57 30 -79 0
-4 -10 -9 -22 -13 -36 -9 -96 -63 -126 -114 -24 -41 -27 -57 -27 -132 0 -75 3
-91 27 -132 92 -156 300 -183 427 -56 53 52 76 112 75 193 0 73 -13 109 -60
172 -32 42 -135 93 -190 93 -32 0 -44 4 -48 18 -3 9 -19 75 -36 146 -17 72
-36 136 -42 143 -16 19 -147 18 -154 -2z m-19 -301 c-150 -142 -223 -205 -228
-197 -5 9 -77 266 -77 276 0 4 89 7 198 7 l197 -1 -90 -85z m-326 -82 c19 -70
36 -133 39 -139 3 -9 -10 -13 -46 -13 l-50 0 -16 46 c-9 26 -27 61 -40 78
l-24 32 47 62 c25 33 48 61 51 61 3 1 20 -56 39 -127z m-266 7 c20 -5 37 -12
37 -15 0 -3 -29 -41 -65 -86 -36 -45 -64 -88 -63 -97 3 -13 22 -16 113 -19 60
-1 113 -6 118 -11 15 -15 -25 -91 -64 -125 -70 -60 -144 -70 -226 -31 -96 44
-144 157 -108 253 41 108 147 162 258 131z m992 -27 c123 -86 118 -272 -10
-347 -56 -33 -104 -41 -159 -25 -124 34 -189 170 -137 285 18 41 82 105 104
105 7 0 23 -40 37 -97 21 -83 28 -98 46 -101 33 -5 36 20 14 111 -11 45 -20
88 -20 96 0 22 79 5 125 -27z"/>
</g>
</svg>
