<?xml version="1.0" standalone="no"?>
<!DOCTYPE svg PUBLIC "-//W3C//DTD SVG 20010904//EN"
 "http://www.w3.org/TR/2001/REC-SVG-20010904/DTD/svg10.dtd">
<svg version="1.0" xmlns="http://www.w3.org/2000/svg"
 width="225.000000pt" height="225.000000pt" viewBox="0 0 225.000000 225.000000"
 preserveAspectRatio="xMidYMid meet">
<metadata>
Created by potrace 1.16, written by Peter Selinger 2001-2019
</metadata>
<g transform="translate(0.000000,225.000000) scale(0.100000,-0.100000)"
fill="#000000" stroke="none">
<path d="M1555 1723 c-56 -12 -178 -69 -240 -111 -84 -58 -155 -141 -155 -181
0 -39 109 -252 173 -335 28 -38 58 -77 66 -87 13 -18 11 -18 -40 -3 -97 29
-166 61 -300 140 -179 105 -296 153 -374 153 -75 1 -136 -26 -186 -80 -33 -36
-39 -39 -62 -28 -30 14 -105 5 -133 -16 -26 -18 -10 -31 21 -17 28 13 84 16
109 6 14 -5 15 -17 10 -68 -8 -74 6 -129 46 -184 23 -32 50 -51 117 -83 49
-23 136 -70 195 -105 113 -67 143 -81 248 -119 247 -90 524 -111 647 -49 80
41 133 118 133 195 0 16 4 29 10 29 5 0 28 16 50 36 108 98 90 354 -45 629
-61 125 -160 271 -190 279 -23 6 -70 6 -100 -1z m109 -39 c9 -24 -18 -67 -79
-122 -101 -93 -261 -166 -347 -160 -39 3 -43 6 -46 31 -7 56 161 191 303 244
72 27 160 31 169 7z m158 -248 c83 -164 126 -351 108 -475 -9 -62 -24 -95 -61
-132 -27 -27 -45 -24 -59 11 -19 47 -74 88 -142 107 -55 16 -65 24 -102 74
-23 30 -61 90 -86 132 -42 73 -60 92 -60 65 0 -15 52 -107 102 -181 22 -32 38
-61 35 -64 -3 -2 -26 -1 -52 2 -41 7 -52 14 -97 69 -62 73 -124 168 -167 253
-17 34 -31 64 -31 66 0 3 26 7 58 11 72 8 192 60 275 120 l65 46 30 -48 c40
-61 102 -190 132 -269 21 -59 40 -82 40 -49 0 42 -109 282 -157 345 -21 27
-24 37 -14 50 6 9 21 31 33 49 l21 34 44 -69 c25 -37 63 -103 85 -147z m-1030
-186 c46 -17 157 -72 248 -124 226 -127 291 -151 502 -180 151 -22 208 -49
244 -118 20 -39 17 -112 -6 -157 l-19 -39 -88 -8 c-114 -9 -378 10 -465 34
-52 15 -68 16 -68 6 0 -13 32 -26 115 -45 28 -6 142 -15 255 -18 l205 -7 -40
-19 c-30 -14 -68 -20 -150 -23 -248 -9 -490 60 -739 212 -60 36 -113 66 -118
66 -18 0 -112 51 -136 73 -41 38 -62 91 -62 157 0 97 40 158 130 199 61 28 95
26 192 -9z"/>
</g>
</svg>
