<!DOCTYPE svg PUBLIC "-//W3C//DTD SVG 1.1//EN" "http://www.w3.org/Graphics/SVG/1.1/DTD/svg11.dtd">

<!-- Uploaded to: SVG Repo, www.svgrepo.com, Transformed by: SVG Repo Mixer Tools -->
<svg width="40px" height="40px" viewBox="-158.72 -158.72 829.44 829.44" xmlns="http://www.w3.org/2000/svg" fill="#ffffff">

<g id="SVGRepo_bgCarrier" stroke-width="0"/>

<g id="SVGRepo_tracerCarrier" stroke-linecap="round" stroke-linejoin="round"/>

<g id="SVGRepo_iconCarrier">

<path fill="#ffffff" d="M255.978 39.21C226.38 86.89 161.383 164.77 106 203.713V256.6c53.113-38.92 105.113-92.538 140.56-145.71L256 96.735l9.44 14.157c35.333 53 87.963 106.298 140.56 145.473V203.77C349.61 164.835 285.346 86.825 255.978 39.21zm0 108.406C226.38 195.293 161.383 273.174 106 312.116v52.89C159.113 326.09 211.113 272.47 246.56 219.3l9.44-14.16 9.44 14.16c35.333 53 87.963 106.298 140.56 145.473v-52.597c-56.39-38.937-120.654-116.944-150.022-164.557zm0 107.782C226.38 303.075 161.383 380.956 106 419.898v52.89c53.113-38.918 105.113-92.536 140.56-145.707l9.44-14.16 9.44 14.16c35.333 53 87.963 106.298 140.56 145.473v-52.597c-56.39-38.938-120.654-116.945-150.022-164.558z"/>

</g>

</svg>