<?xml version="1.0" encoding="UTF-8"?>
<!DOCTYPE svg PUBLIC "-//W3C//DTD SVG 1.1//EN" "http://www.w3.org/Graphics/SVG/1.1/DTD/svg11.dtd">
<!-- Creator: CorelDRAW -->
<svg xmlns="http://www.w3.org/2000/svg" xml:space="preserve" width="3508px" height="2480px" version="1.1" style="shape-rendering:geometricPrecision; text-rendering:geometricPrecision; image-rendering:optimizeQuality; fill-rule:evenodd; clip-rule:evenodd"
viewBox="0 0 3508 2480.4"
 xmlns:xlink="http://www.w3.org/1999/xlink"
 xmlns:xodm="http://www.corel.com/coreldraw/odm/2003">
 <defs>
  <style type="text/css">
   <![CDATA[
    .fil0 {fill:#141E46;fill-rule:nonzero}
   ]]>
  </style>
 </defs>
 <g id="Layer_x0020_1">
  <metadata id="CorelCorpID_0Corel-Layer"/>
  <path class="fil0" d="M1753.94 68.61c-647.59,0 -1172.43,524.85 -1172.43,1172.44 0,647.58 524.84,1172.43 1172.43,1172.43 647.58,0 1172.43,-524.85 1172.43,-1172.43 0,-647.59 -524.85,-1172.44 -1172.43,-1172.44zm258.76 973.67l-13.29 175.41 -179.98 0 0 609.11 -227.16 0 0 -609.11 -121.37 0 0 -175.41 121.37 0 0 -117.7c0,-51.75 1.37,-131.9 38.93,-181.82 39.84,-52.67 94.34,-88.39 188.23,-88.39 152.96,0 217.08,21.98 217.08,21.98l-30.23 179.53c0,0 -50.37,-14.65 -97.55,-14.65 -47.17,0 -89.3,16.94 -89.3,64.12l0 136.93 193.27 0z"/>
 </g>
</svg>
