<?xml version="1.0" encoding="UTF-8"?>
<!DOCTYPE svg PUBLIC "-//W3C//DTD SVG 1.1//EN" "http://www.w3.org/Graphics/SVG/1.1/DTD/svg11.dtd">
<!-- Creator: CorelDRAW -->
<svg xmlns="http://www.w3.org/2000/svg" xml:space="preserve" width="3508px" height="2480px" version="1.1" style="shape-rendering:geometricPrecision; text-rendering:geometricPrecision; image-rendering:optimizeQuality; fill-rule:evenodd; clip-rule:evenodd"
viewBox="0 0 3508 2480.4"
 xmlns:xlink="http://www.w3.org/1999/xlink"
 xmlns:xodm="http://www.corel.com/coreldraw/odm/2003">
 <defs>
  <style type="text/css">
   <![CDATA[
    .fil0 {fill:#141E46;fill-rule:nonzero}
   ]]>
  </style>
 </defs>
 <g id="Layer_x0020_1">
  <metadata id="CorelCorpID_0Corel-Layer"/>
  <g id="_2446065951984">
   <g>
    <path class="fil0" d="M1831.87 92.07c584.24,0 1062.25,478.01 1062.25,1062.25l0 165.96c0,584.24 -478.02,1062.25 -1062.25,1062.25l-165.96 0c-584.24,0 -1062.24,-478.01 -1062.24,-1062.25l0 -165.96c0,-584.24 478,-1062.25 1062.24,-1062.25l165.96 0zm-62.1 575.69l-14.78 -0.02c-123.06,0 -246.13,4.07 -246.13,4.07 -179.75,0 -325.46,145.71 -325.46,325.46 0,0 -3.74,105.67 -4.05,219.1l-0.02 14.83c0,126.99 4.07,258.33 4.07,258.33 0,179.75 145.72,325.47 325.46,325.47 0,0 115.07,4.07 233.93,4.07 127,0 262.41,-4.07 262.41,-4.07 179.74,0 321.39,-141.65 321.39,-321.4 0,0 4.07,-129.86 4.07,-254.26l-0.08 -29.2c-0.55,-111.62 -3.99,-216.94 -3.99,-216.94 0,-179.75 -141.65,-321.39 -321.4,-321.39 0,0 -117.16,-3.75 -235.42,-4.05l0 0zm-14.78 103.6c100.92,0 230.31,3.33 230.31,3.33 147.4,0 238.4,91.01 238.4,238.4 0,0 3.34,127.18 3.34,226.97 0,102.02 -3.34,233.64 -3.34,233.64 0,147.4 -91,238.4 -238.4,238.4 0,0 -114.43,2.81 -213.71,3.28l-26.6 0.06c-97.47,0 -216.23,-3.34 -216.23,-3.34 -147.4,0 -242.47,-95.07 -242.47,-242.47 0,0 -3.34,-132.1 -3.34,-236.24 0,-97.47 3.34,-220.3 3.34,-220.3 0,-147.39 95.08,-238.4 242.47,-238.4 0,0 125.32,-3.34 226.23,-3.34l0 0.01zm0 177.15c-162.86,0 -294.89,132.03 -294.89,294.89 0,162.86 132.03,294.89 294.89,294.89 162.86,0 294.89,-132.03 294.89,-294.89 0,-162.86 -132.03,-294.89 -294.89,-294.89zm0 103c105.98,0 191.89,85.91 191.89,191.89 0,105.98 -85.91,191.89 -191.89,191.89 -105.97,0 -191.89,-85.91 -191.89,-191.89 0,-105.98 85.91,-191.89 191.89,-191.89zm309 -184.83c-39.35,0 -71.26,32.06 -71.26,71.6 0,39.55 31.91,71.61 71.26,71.61 39.35,0 71.25,-32.06 71.25,-71.61 0,-39.54 -31.9,-71.6 -71.25,-71.6z"/>
   </g>
  </g>
 </g>
</svg>
