<?xml version="1.0" encoding="UTF-8"?>
<!DOCTYPE svg PUBLIC "-//W3C//DTD SVG 1.1//EN" "http://www.w3.org/Graphics/SVG/1.1/DTD/svg11.dtd">
<!-- Creator: CorelDRAW -->
<svg xmlns="http://www.w3.org/2000/svg" xml:space="preserve" width="3508px" height="2480px" version="1.1" style="shape-rendering:geometricPrecision; text-rendering:geometricPrecision; image-rendering:optimizeQuality; fill-rule:evenodd; clip-rule:evenodd"
viewBox="0 0 3508 2480.4"
 xmlns:xlink="http://www.w3.org/1999/xlink"
 xmlns:xodm="http://www.corel.com/coreldraw/odm/2003">
 <defs>
  <style type="text/css">
   <![CDATA[
    .fil0 {fill:#141E46;fill-rule:nonzero}
   ]]>
  </style>
 </defs>
 <g id="Layer_x0020_1">
  <metadata id="CorelCorpID_0Corel-Layer"/>
  <path class="fil0" d="M1753.94 57.69c-653.62,0 -1183.36,529.73 -1183.36,1183.35 0,653.62 529.74,1183.36 1183.36,1183.36 653.62,0 1183.35,-529.74 1183.35,-1183.36 0,-653.62 -529.73,-1183.35 -1183.35,-1183.35zm-330.97 1678.42l-230.67 0 0 -738.21 230.67 0 0 738.21zm-121.58 -830.66l-1.84 0c-83.67,0 -137.75,-56.39 -137.75,-128.04 0,-73.04 55.93,-128.05 140.98,-128.05 85.06,0 137.29,55.01 139.14,128.05 0.46,71.18 -53.62,128.04 -140.53,128.04zm1044.23 830.66l-261.64 0 0 -381.82c0,-99.84 -40.68,-168.25 -130.81,-168.25 -68.88,0 -107.24,46.22 -124.81,90.6 -6.47,15.71 -5.55,37.9 -5.55,60.55l0 398.92 -259.32 0c0,0 3.24,-676.73 0,-738.21l259.32 0 0 116.02c15.26,-50.84 98,-122.95 230.2,-122.95 164.1,0 292.61,106.31 292.61,334.67l0 410.47z"/>
 </g>
</svg>
